<svg width="45" height="45" viewBox="0 0 45 45" fill="none" xmlns="http://www.w3.org/2000/svg">
<mask id="mask0_4_13" style="mask-type:luminance" maskUnits="userSpaceOnUse" x="0" y="0" width="45" height="38">
<path d="M45 0H0V37.35H45V0Z" fill="white"/>
</mask>
<g mask="url(#mask0_4_13)">
<path d="M22.5 43.5C34.098 43.5 43.5 34.098 43.5 22.5C43.5 10.902 34.098 1.5 22.5 1.5C10.902 1.5 1.5 10.902 1.5 22.5C1.5 34.098 10.902 43.5 22.5 43.5Z" fill="black"/>
</g>
<path d="M22.5 25.875C27.2635 25.875 31.125 22.0135 31.125 17.25C31.125 12.4865 27.2635 8.625 22.5 8.625C17.7365 8.625 13.875 12.4865 13.875 17.25C13.875 22.0135 17.7365 25.875 22.5 25.875Z" fill="white"/>
<mask id="mask1_4_13" style="mask-type:luminance" maskUnits="userSpaceOnUse" x="1" y="1" width="43" height="43">
<path d="M22.5 43.5C34.098 43.5 43.5 34.098 43.5 22.5C43.5 10.902 34.098 1.5 22.5 1.5C10.902 1.5 1.5 10.902 1.5 22.5C1.5 34.098 10.902 43.5 22.5 43.5Z" fill="white"/>
</mask>
<g mask="url(#mask1_4_13)">
<path d="M22.5 56.625C30.9914 56.625 37.875 49.7414 37.875 41.25C37.875 32.7586 30.9914 25.875 22.5 25.875C14.0086 25.875 7.125 32.7586 7.125 41.25C7.125 49.7414 14.0086 56.625 22.5 56.625Z" fill="white"/>
</g>
</svg>
