<svg width="15" height="15" viewBox="0 0 15 15" fill="none" xmlns="http://www.w3.org/2000/svg">
<g clip-path="url(#clip0_5_75)">
<path d="M14.8003 13.8361L11.9149 10.9507C13.6681 9.63089 14.8023 7.99975 14.8807 7.88534C15.0398 7.65307 15.0398 7.34689 14.8807 7.11461C14.7477 6.92057 11.578 2.36261 7.50018 2.36261C6.32418 2.36261 5.22405 2.74193 4.25023 3.28593L1.16395 0.199705C0.897727 -0.0665682 0.466 -0.0665682 0.199727 0.199705C-0.0665454 0.465977 -0.0665454 0.897659 0.199727 1.16393L3.08509 4.0493C1.33177 5.36907 0.197727 7.00025 0.119318 7.11466C-0.0397727 7.34689 -0.0397727 7.65307 0.119318 7.88534C0.252273 8.07934 3.42159 12.6374 7.50014 12.6374C8.67595 12.6374 9.776 12.2581 10.7498 11.7141L13.836 14.8003C13.9692 14.9334 14.1437 15 14.3182 15C14.4927 15 14.6672 14.9334 14.8003 14.8003C15.0666 14.534 15.0666 14.1023 14.8003 13.8361ZM7.50014 3.7262C10.2392 3.7262 12.655 6.46884 13.4664 7.49993C13.0267 8.05875 12.1161 9.11943 10.9387 9.97443L5.25786 4.29366C5.95814 3.95007 6.71527 3.7262 7.50014 3.7262ZM7.50014 11.2738C4.75991 11.2738 2.34382 8.52993 1.53318 7.49934C1.97186 6.94011 2.881 5.87852 4.05927 5.02343L9.74064 10.7048C9.04018 11.0492 8.28345 11.2738 7.50014 11.2738Z" fill="black"/>
</g>
<defs>
<clipPath id="clip0_5_75">
<rect width="15" height="15" fill="white"/>
</clipPath>
</defs>
</svg>
