<svg width="15" height="15" viewBox="0 0 15 15" fill="none" xmlns="http://www.w3.org/2000/svg">
<g clip-path="url(#clip0_5_67)">
<path d="M12.8131 6.21035V5.32609C12.8131 4.60933 12.6724 3.91339 12.3951 3.25769C12.1274 2.62486 11.7445 2.05679 11.2569 1.56919C10.7693 1.08161 10.2012 0.698678 9.56841 0.431042C8.91268 0.1537 8.21677 0.0130463 7.49998 0.0130463C6.7832 0.0130463 6.08729 0.1537 5.43155 0.431042C4.79873 0.698704 4.23066 1.08161 3.74306 1.56919C3.25548 2.05677 2.87252 2.62486 2.60488 3.25769C2.32754 3.91342 2.18689 4.60933 2.18689 5.32609V6.21035C1.42139 6.28666 0.821625 6.93444 0.821625 7.71968V13.47C0.821625 14.3065 1.50212 14.987 2.33853 14.987H12.6614C13.4978 14.987 14.1783 14.3065 14.1783 13.47V7.71968C14.1784 6.93444 13.5786 6.28669 12.8131 6.21035ZM1.93937 13.47V7.71968C1.93937 7.55294 2.04167 7.41012 2.18694 7.3504C2.23369 7.33119 2.28486 7.3205 2.33858 7.3205H2.74582H3.30468H11.6954H12.2543H12.6615C12.7152 7.3205 12.7664 7.33117 12.8131 7.3504C12.9584 7.41012 13.0607 7.55294 13.0607 7.71968V13.47C13.0607 13.6905 12.882 13.8692 12.6615 13.8692H2.33855C2.11809 13.8692 1.93937 13.6905 1.93937 13.47ZM3.30466 5.32609C3.30466 3.00907 5.18299 1.13076 7.50001 1.13076C9.81703 1.13076 11.6954 3.0091 11.6954 5.32609V6.20278H3.30466V5.32609Z" fill="black"/>
<path d="M12.6614 15H2.33854C1.49493 15 0.808594 14.3137 0.808594 13.47V7.71968C0.808594 7.33837 0.950291 6.97282 1.20757 6.69039C1.46044 6.41278 1.80322 6.23845 2.17386 6.19861V5.32611C2.17386 4.60761 2.31482 3.91 2.5929 3.25262C2.86119 2.61826 3.24508 2.04878 3.73386 1.56C4.22261 1.07125 4.79212 0.68738 5.42648 0.419066C6.08388 0.140967 6.78149 0 7.5 0C8.2185 0 8.91614 0.140967 9.57351 0.419039C10.2079 0.687328 10.7774 1.0712 11.2662 1.55998C11.7549 2.04876 12.1388 2.61823 12.4071 3.2526C12.6851 3.90992 12.8261 4.60756 12.8261 5.32609V6.19858C13.1968 6.23842 13.5396 6.41278 13.7924 6.69039C14.0497 6.97282 14.1914 7.33834 14.1914 7.71968V13.47C14.1914 14.3137 13.5051 15 12.6614 15ZM7.5 0.0260905C6.78501 0.0260905 6.0908 0.166379 5.43666 0.443043C4.80537 0.710053 4.23868 1.09204 3.75231 1.5784C3.2659 2.0648 2.88391 2.63149 2.61693 3.26275C2.34026 3.91689 2.19997 4.61108 2.19997 5.32606V6.22214L2.18821 6.22331C1.8195 6.26008 1.47808 6.43217 1.22688 6.70794C0.973981 6.98555 0.83471 7.34487 0.83471 7.71966V13.47C0.83471 14.2992 1.50933 14.9739 2.33857 14.9739H12.6615C13.4907 14.9739 14.1653 14.2993 14.1653 13.47V7.71966C14.1653 7.34484 14.0261 6.98555 13.7732 6.70794C13.522 6.43219 13.1806 6.26008 12.8118 6.22331L12.8001 6.22214V5.32606C12.8001 4.61103 12.6598 3.91681 12.3831 3.26275C12.1161 2.63149 11.7341 2.06478 11.2477 1.5784C10.7613 1.09202 10.1946 0.710027 9.56339 0.443043C8.90922 0.166379 8.21501 0.0260905 7.5 0.0260905ZM12.6615 13.8823H2.33857C2.11127 13.8823 1.92634 13.6974 1.92634 13.47V7.71968C1.92634 7.55187 2.02668 7.40219 2.182 7.33834C2.23183 7.31786 2.28453 7.30748 2.33857 7.30748H12.6615C12.7155 7.30748 12.7682 7.31786 12.8181 7.33834C12.9734 7.40219 13.0737 7.55189 13.0737 7.71968V13.47C13.0737 13.6974 12.8888 13.8823 12.6615 13.8823ZM2.33857 7.33357C2.28792 7.33357 2.23859 7.3433 2.19189 7.36248C2.04641 7.42228 1.9524 7.56251 1.9524 7.71968V13.47C1.9524 13.683 2.12562 13.8562 2.33854 13.8562H12.6615C12.8744 13.8562 13.0476 13.683 13.0476 13.47V7.71968C13.0476 7.56251 12.9536 7.42228 12.8081 7.36248C12.7614 7.3433 12.7121 7.33357 12.6615 7.33357H2.33857ZM11.7084 6.21583H3.29163V5.32609C3.29163 3.00557 5.17951 1.11772 7.50002 1.11772C9.82054 1.11772 11.7084 3.00557 11.7084 5.32609V6.21583ZM3.31772 6.18973H11.6823V5.32609C11.6823 3.01997 9.80616 1.14381 7.50002 1.14381C5.19388 1.14381 3.31772 3.01997 3.31772 5.32609V6.18973Z" fill="black"/>
<path d="M7.49998 7.88911C6.60411 7.88911 5.87527 8.61798 5.87527 9.51385C5.87527 10.2089 6.31401 10.8033 6.92902 11.0349V12.0937V12.3151C6.92902 12.4503 6.97697 12.5742 7.05681 12.6709C7.15929 12.7949 7.31435 12.874 7.48785 12.874C7.66028 12.874 7.81445 12.7958 7.91696 12.6731C7.99795 12.5761 8.04671 12.4513 8.04671 12.3151V12.0971V11.0438C8.67442 10.8188 9.12469 10.218 9.12469 9.51385C9.12472 8.61798 8.39588 7.88911 7.49998 7.88911ZM7.49998 10.0209C7.21998 10.0209 6.99297 9.79388 6.99297 9.51385C6.99297 9.23382 7.21998 9.0068 7.49998 9.0068C7.77999 9.0068 8.007 9.23382 8.007 9.51385C8.007 9.79388 7.78001 10.0209 7.49998 10.0209Z" fill="black"/>
<path d="M7.48789 12.8871C7.31668 12.8871 7.15591 12.8113 7.04678 12.6792C6.96243 12.5771 6.91599 12.4478 6.91599 12.3151V11.0439C6.28535 10.8024 5.86224 10.1887 5.86224 9.51385C5.86224 8.61078 6.59695 7.87607 7.5 7.87607C8.40304 7.87607 9.13778 8.61078 9.13778 9.51385C9.13778 10.2003 8.70493 10.8176 8.05979 11.053V12.3151C8.05979 12.4488 8.01262 12.5789 7.92702 12.6814C7.81791 12.8121 7.65784 12.8871 7.48789 12.8871ZM7.5 7.90216C6.6113 7.90216 5.88833 8.62518 5.88833 9.51385C5.88833 10.1809 6.30842 10.7872 6.93362 11.0227L6.94208 11.0259V12.3151C6.94208 12.4417 6.9864 12.5651 7.06689 12.6625C7.17105 12.7886 7.32451 12.8609 7.48789 12.8609C7.65007 12.8609 7.80283 12.7894 7.90698 12.6647C7.9887 12.5669 8.03368 12.4427 8.03368 12.3151V11.0346L8.04231 11.0315C8.68195 10.8023 9.11166 10.1924 9.11166 9.51385C9.11168 8.62518 8.38869 7.90216 7.5 7.90216ZM7.5 10.0339C7.21324 10.0339 6.97993 9.80063 6.97993 9.51385C6.97993 9.22706 7.21324 8.99376 7.5 8.99376C7.78676 8.99376 8.02006 9.22706 8.02006 9.51385C8.02006 9.80063 7.78676 10.0339 7.5 10.0339ZM7.5 9.01988C7.22764 9.01988 7.00603 9.24146 7.00603 9.51387C7.00603 9.78628 7.22761 10.0079 7.5 10.0079C7.77238 10.0079 7.99397 9.78628 7.99397 9.51387C7.99397 9.24146 7.77238 9.01988 7.5 9.01988Z" fill="black"/>
</g>
<defs>
<clipPath id="clip0_5_67">
<rect width="15" height="15" fill="white"/>
</clipPath>
</defs>
</svg>
