<svg width="15" height="15" viewBox="0 0 15 15" fill="none" xmlns="http://www.w3.org/2000/svg">
<path d="M12.521 13.0465H2.46242C1.15001 13.0465 0.082428 11.9789 0.082428 10.6665V4.31652C0.082428 3.00427 1.15017 1.93652 2.46242 1.93652H12.521C13.8332 1.93652 14.9008 3.00427 14.9008 4.31652V10.6665C14.9008 11.9789 13.8332 13.0465 12.521 13.0465ZM2.46242 2.63249C1.5338 2.63249 0.778397 3.3879 0.778397 4.31652V10.6665C0.778397 11.5951 1.5338 12.3507 2.46242 12.3507H12.521C13.4496 12.3507 14.205 11.5951 14.205 10.6665V4.31652C14.205 3.3879 13.4496 2.63249 12.521 2.63249H2.46242Z" fill="#1D1D1B"/>
<path d="M1.90079 4.34961C3.67965 6.08303 5.45852 7.81628 7.23738 9.5497C7.56898 9.87274 8.07791 9.36497 7.74581 9.04127C5.96695 7.30801 4.18809 5.57459 2.40923 3.84134C2.07762 3.51814 1.5687 4.02608 1.90079 4.34961Z" fill="#1D1D1B"/>
<path d="M7.74582 9.5497C9.52468 7.81644 11.3035 6.08302 13.0824 4.34977C13.4143 4.02623 12.9057 3.51813 12.574 3.84133C10.7951 5.57459 9.01625 7.30801 7.23738 9.04126C6.90545 9.36479 7.41405 9.8729 7.74582 9.5497Z" fill="#1D1D1B"/>
<path d="M13.0628 10.7767C11.8792 9.6541 10.6953 8.53169 9.51168 7.40911C9.17596 7.09085 8.6667 7.5983 9.00324 7.91755C10.1869 9.04012 11.3707 10.1625 12.5544 11.2851C12.8901 11.6034 13.3994 11.0958 13.0628 10.7767Z" fill="#1D1D1B"/>
<path d="M2.46094 11.2849C3.6446 10.1624 4.82842 9.03995 6.01208 7.91738C6.34845 7.59829 5.83953 7.09052 5.50364 7.40895C4.31999 8.53152 3.13616 9.65393 1.95251 10.7765C1.61613 11.0956 2.12506 11.6035 2.46094 11.2849Z" fill="#1D1D1B"/>
</svg>
