<svg width="45" height="45" viewBox="0 0 45 45" fill="none" xmlns="http://www.w3.org/2000/svg">
<path d="M40.0781 11.5137V33.4863C40.0781 35.3013 39.4321 36.8569 38.1445 38.1445C36.8569 39.4321 35.3057 40.0781 33.4863 40.0781H11.5181C9.70313 40.0781 8.14746 39.4321 6.85986 38.1445C5.57227 36.8569 4.92627 35.3057 4.92627 33.4863V11.5137C4.92627 9.69873 5.57227 8.14307 6.85986 6.85547C8.14746 5.56787 9.69873 4.92188 11.5181 4.92188H33.4907C35.3057 4.92188 36.8613 5.56787 38.1489 6.85547C39.4321 8.14307 40.0781 9.69873 40.0781 11.5137ZM34.2158 23.9678V21.0366C34.2158 20.6411 34.0708 20.2939 33.7808 20.0083C33.4907 19.7183 33.1436 19.5732 32.7524 19.5732H25.4312V12.2432C25.4312 11.8477 25.2861 11.5005 24.9961 11.2148C24.7061 10.9248 24.3589 10.7798 23.9678 10.7798H21.0366C20.6411 10.7798 20.2939 10.9248 20.0083 11.2148C19.7227 11.5049 19.5732 11.8521 19.5732 12.2432V19.5645H12.2476C11.8521 19.5645 11.5049 19.7095 11.2192 19.9995C10.9292 20.2896 10.7842 20.6367 10.7842 21.0278V23.959C10.7842 24.3545 10.9292 24.7017 11.2192 24.9873C11.5093 25.2773 11.8477 25.4224 12.2476 25.4224H19.5732V32.748C19.5732 33.1436 19.7183 33.4907 20.0083 33.7764C20.2983 34.0664 20.6367 34.2114 21.0366 34.2114H23.9678C24.3633 34.2114 24.7104 34.0664 24.9961 33.7764C25.2861 33.4863 25.4312 33.1392 25.4312 32.748V25.4268H32.7524C33.148 25.4268 33.4951 25.2817 33.7808 24.9917C34.0708 24.7017 34.2158 24.3589 34.2158 23.9678Z" fill="black"/>
</svg>
